<svg height="409pt" viewBox="0 -13 409.60219 409" width="409pt" xmlns="http://www.w3.org/2000/svg"><path d="m339.394531 375.769531h-209.6875v-150.1875h232.105469v127.765625c0 12.378906-10.039062 22.421875-22.417969 22.421875zm0 0" fill="#fff"/><path d="m339.394531 375.769531v-6.828125h-202.863281v-136.539062h218.453125v120.945312c-.015625 8.601563-6.988281 15.578125-15.59375 15.59375v13.648438c16.152344-.003906 29.242187-13.089844 29.246094-29.242188v-127.765625c0-1.800781-.730469-3.558593-2-4.832031-1.269531-1.269531-3.027344-1.996094-4.824219-1.996094h-232.105469c-1.796875 0-3.558593.726563-4.828125 1.996094-1.273437 1.273438-2 3.03125-2 4.832031v150.1875c0 1.820313.710938 3.535157 2 4.824219 1.292969 1.289062 3.003906 1.996094 4.828125 1.996094h209.6875zm0 0" fill="#54596e"/><path d="m245.761719 54.914062-155.347657 161.328126c-3.515624 3.390624-1.105468 9.339843 3.773438 9.339843h303.148438c4.878906 0 7.285156-5.945312 3.773437-9.339843zm0 0" fill="#9af43b"/><path d="m245.761719 54.914062-4.917969-4.734374-155.347656 161.324218 4.917968 4.738282-4.734374-4.921876c-2.5 2.378907-3.789063 5.703126-3.757813 8.777344.011719 3.15625 1.179687 6.125 3.316406 8.4375 2.109375 2.3125 5.410157 3.894532 8.949219 3.871094h303.148438c3.53125.027344 6.832031-1.550781 8.945312-3.871094 2.136719-2.3125 3.308594-5.277344 3.320312-8.433594.027344-3.070312-1.25-6.402343-3.761718-8.78125l-4.730469 4.921876 4.917969-4.734376-155.347656-161.328124c-1.285157-1.335938-3.070313-2.09375-4.917969-2.09375-1.851563 0-3.636719.757812-4.917969 2.09375l4.917969 4.734374-4.917969 4.734376 155.34375 161.324218.1875.1875 1.019531-1.0625-1.449219.003906.429688 1.058594 1.019531-1.0625-1.449219.003906h1.269532l-.929688-.867187-.339844.867187h1.269532l-.929688-.867187 1.046875.972656v-1.453125l-1.046875.480469 1.046875.972656v-1.453125h-303.144531v1.453125l1.046875-.972656-1.046875-.480469v1.453125l1.046875-.972656-.929687.863281h1.265624l-.335937-.863281-.929687.863281h1.265624-1.441406l1.019532 1.0625.421874-1.0625h-1.441406l1.019532 1.0625.179687-.183594 155.347656-161.324218-4.914062-4.738282-4.917969 4.734376zm0 0" fill="#54596e"/><path d="m181.597656 150.765625c3.007813 7.128906 10.074219 12.125 18.300782 12.132813 7.847656-.003907 14.660156-4.5625 17.867187-11.183594 1.648437-3.390625.234375-7.476563-3.15625-9.121094-3.390625-1.652344-7.476563-.238281-9.121094 3.15625-1.019531 2.070312-3.128906 3.5-5.589843 3.496094-2.570313.007812-4.773438-1.570313-5.722657-3.800782-1.472656-3.472656-5.476562-5.09375-8.949219-3.628906-3.472656 1.46875-5.09375 5.476563-3.625 8.949219zm0 0" fill="#54596e"/><path d="m294.085938 145.449219c-.953126 2.230469-3.152344 3.804687-5.726563 3.800781-2.457031.003906-4.570313-1.429688-5.585937-3.5-1.652344-3.394531-5.738282-4.804688-9.125-3.15625-3.394532 1.652344-4.804688 5.734375-3.152344 9.128906 3.207031 6.617188 10.015625 11.171875 17.863281 11.175782 8.230469-.007813 15.292969-5.003907 18.300781-12.132813 1.46875-3.472656-.15625-7.476563-3.628906-8.945313-3.472656-1.464843-7.476562.160157-8.945312 3.632813zm0 0" fill="#54596e"/><path d="m259.414062 266.542969h54.613282v109.226562h-54.613282zm0 0" fill="#fff35f"/><path d="m314.027344 375.769531v-6.828125h-47.789063v-95.574218h40.960938v102.402343h6.828125v-6.828125 6.828125h6.824218v-109.226562c0-1.800781-.726562-3.558594-2-4.832031-1.269531-1.269532-3.027343-1.996094-4.824218-1.996094h-54.613282c-1.796874 0-3.558593.726562-4.828124 1.996094-1.273438 1.273437-2 3.03125-2 4.832031v109.226562c0 1.796875.730468 3.550781 2 4.824219 1.269531 1.269531 3.027343 2 4.828124 2h54.613282c1.796875 0 3.554687-.730469 4.824218-2 1.273438-1.273438 2-3.027344 2-4.824219zm0 0" fill="#54596e"/><path d="m170.667969 266.542969h47.785156v47.785156h-47.785156zm0 0" fill="#fff35f"/><path d="m218.453125 314.328125v-6.828125h-40.960937v-34.140625h34.132812v40.96875h6.828125v-6.828125 6.828125h6.828125v-47.785156c0-1.800781-.730469-3.558594-2-4.832031-1.269531-1.269532-3.027344-1.996094-4.828125-1.996094h-47.785156c-1.796875 0-3.554688.726562-4.828125 1.996094-1.269532 1.273437-2 3.03125-2 4.832031v47.785156c0 1.824219.710937 3.535156 2.003906 4.824219 1.289062 1.292968 3 2 4.824219 2h47.785156c1.824219 0 3.539063-.707032 4.828125-2 1.289062-1.289063 2-3 2-4.824219zm0 0" fill="#54596e"/><path d="m232.105469 307.5h-75.09375c-3.769531 0-6.824219 3.054688-6.824219 6.828125 0 3.769531 3.054688 6.828125 6.824219 6.828125h75.09375c3.769531 0 6.828125-3.058594 6.828125-6.828125 0-3.773437-3.058594-6.828125-6.828125-6.828125" fill="#54596e"/><path d="m205.644531 182.855469c8.976563 9.757812 23.648438 15.359375 40.113281 15.414062 16.304688-.050781 30.84375-5.550781 39.847657-15.125 2.566406-2.761719 2.40625-7.082031-.355469-9.644531-2.765625-2.566406-7.082031-2.402344-9.644531.359375-5.433594 5.96875-16.710938 10.816406-29.84375 10.761719-13.269531.058594-24.636719-4.898438-30.007813-10.941406-2.535156-2.792969-6.851562-3-9.644531-.464844-2.789063 2.535156-3 6.851562-.464844 9.644531zm0 0" fill="#54596e"/><path d="m197.972656 368.941406h-157.011718c-3.769532 0-6.828126 3.054688-6.828126 6.828125 0 3.769531 3.058594 6.824219 6.828126 6.824219h157.011718c3.769532 0 6.828125-3.054688 6.828125-6.824219 0-3.773437-3.058593-6.828125-6.828125-6.828125" fill="#54596e"/><path d="m95.574219 130.007812v-102.398437c0-11.308594-9.167969-20.480469-20.480469-20.480469s-20.480469 9.171875-20.480469 20.480469v102.398437zm0 0" fill="#d8d8d8"/><path d="m95.574219 130.007812h6.824219v-102.398437c-.003907-15.082031-12.214844-27.304687-27.304688-27.308594-15.089844.003907-27.300781 12.226563-27.308594 27.308594v102.398437c0 1.824219.710938 3.535157 2 4.828126 1.292969 1.289062 3.003906 1.996093 4.828125 1.996093h40.960938c1.820312 0 3.535156-.707031 4.824219-1.996093 1.292968-1.292969 2-3.003907 2-4.828126h-6.824219v-6.828124h-34.132813v-95.570313c.011719-7.539063 6.113282-13.640625 13.652344-13.660156 7.539062.019531 13.640625 6.121093 13.652344 13.660156v102.398437h6.828125v-6.828124zm0 0" fill="#54596e"/><path d="m95.574219 167.273438v-37.265626h-40.960938v37.265626c-27.695312 8.707031-47.785156 34.566406-47.785156 65.132812 0 37.707031 30.566406 68.269531 68.265625 68.269531s68.265625-30.5625 68.265625-68.269531c0-30.566406-20.09375-56.425781-47.785156-65.132812zm0 0" fill="#55a6ff"/><g fill="#54596e"><path d="m95.574219 167.273438h6.824219v-37.265626c0-1.800781-.726563-3.558593-1.996094-4.828124-1.273438-1.273438-3.03125-2-4.828125-2h-40.960938c-1.796875 0-3.558593.726562-4.828125 2-1.269531 1.269531-2 3.027343-2 4.828124v37.265626h6.828125l-2.046875-6.511719c-30.472656 9.574219-52.5546872 38.019531-52.566406 71.644531.00390625 41.480469 33.621094 75.089844 75.09375 75.089844s75.085938-33.609375 75.09375-75.089844c-.011719-33.625-22.09375-62.070312-52.566406-71.644531l-2.046875 6.511719h6.824219-6.824219l-2.050781 6.511718c24.914062 7.839844 43.023437 31.109375 43.011718 58.621094-.003906 16.988281-6.871094 32.304688-18 43.445312-11.140625 11.128907-26.457031 17.988282-43.441406 17.996094-16.988281-.007812-32.304688-6.867187-43.445312-17.996094-11.128907-11.140624-17.992188-26.457031-17.996094-43.445312-.011719-27.507812 18.09375-50.78125 43.007812-58.621094 2.851563-.898437 4.78125-3.523437 4.78125-6.511718v-30.445313h27.304688v30.445313c0 2.988281 1.929687 5.613281 4.777344 6.511718zm0 0"/><path d="m13.652344 34.433594h13.65625c3.769531 0 6.824218-3.054688 6.824218-6.824219 0-3.773437-3.054687-6.828125-6.824218-6.828125h-13.65625c-3.769532 0-6.824219 3.054688-6.824219 6.828125 0 3.769531 3.054687 6.824219 6.824219 6.824219"/><path d="m13.652344 54.914062h13.65625c3.769531 0 6.824218-3.054687 6.824218-6.828124 0-3.773438-3.054687-6.824219-6.824218-6.824219h-13.65625c-3.769532 0-6.824219 3.050781-6.824219 6.824219 0 3.773437 3.054687 6.828124 6.824219 6.828124"/><path d="m13.652344 75.394531h13.65625c3.769531 0 6.824218-3.058593 6.824218-6.828125 0-3.773437-3.054687-6.824218-6.824218-6.824218h-13.65625c-3.769532 0-6.824219 3.050781-6.824219 6.824218 0 3.769532 3.054687 6.828125 6.824219 6.828125"/><path d="m13.652344 95.875h13.65625c3.769531 0 6.824218-3.058594 6.824218-6.828125 0-3.773437-3.054687-6.824219-6.824218-6.824219h-13.65625c-3.769532 0-6.824219 3.050782-6.824219 6.824219 0 3.769531 3.054687 6.828125 6.824219 6.828125"/><path d="m13.652344 116.355469h13.65625c3.769531 0 6.824218-3.058594 6.824218-6.828125 0-3.773438-3.054687-6.828125-6.824218-6.828125h-13.65625c-3.769532 0-6.824219 3.054687-6.824219 6.828125 0 3.769531 3.054687 6.828125 6.824219 6.828125"/><path d="m13.652344 136.835938h13.65625c3.769531 0 6.824218-3.058594 6.824218-6.828126 0-3.773437-3.054687-6.828124-6.824218-6.828124h-13.65625c-3.769532 0-6.824219 3.054687-6.824219 6.828124 0 3.769532 3.054687 6.828126 6.824219 6.828126"/></g></svg>